# File created by Blade
# Date/Time:  Wed Apr 08 17:00:17 2015
# Frame Rate: 120.000 fps
#------------------------------------------------------
:FULLY-SPECIFIED
:DEGREES
1773
root 0.938832 35.618683 2.859151 -26.522358 -77.270605 13.202498
Spine 8.712688 3.784340 -9.984136
Head -7.673499 1.184642 -1.546936
LeftShoulder 7.070577 0.235867 24.545385
LeftArm 93.613219 46.658170 -37.096377
LeftForeArm -46.859370 -0.000000 92.487552
LeftHand -28.167068 -0.000000 14.212938
LeftHandThumb1 -26.253704 0.000000 33.147579
RightShoulder -0.424210 -34.213602 -20.758585
RightArm 104.125931 18.589016 68.927534
RightForeArm 43.388850 0.000000 134.520141
RightHand 0.251711 -0.000000 37.813755
RightHandThumb1 -24.326973 -0.000000 -32.862282
LeftUpLeg 14.708503 5.829862 5.711623
LeftLeg 12.511384 -0.000000 -0.000000
LeftFoot -14.635757 -3.681549 -11.917800
LeftToeBase 10.414845 -0.000000 -0.000000
RightUpLeg 25.560295 -19.267474 -18.892537
RightLeg 1.703540 -0.000000 -0.000000
RightFoot -12.335970 6.063885 20.228931
RightToeBase 14.476594 -0.000000 -0.000000
1774
root 0.939199 35.618819 2.865879 -26.646074 -77.361061 13.314501
Spine 8.706083 3.694957 -9.916620
Head -7.583425 1.534998 -1.663801
LeftShoulder 7.043533 0.241747 24.572726
LeftArm 93.576232 46.610989 -37.111042
LeftForeArm -46.826043 -0.000000 92.630986
LeftHand -28.269240 -0.000000 14.245317
LeftHandThumb1 -26.253704 0.000000 33.147579
RightShoulder -0.547934 -34.182050 -20.650934
RightArm 104.435894 18.432361 69.844040
RightForeArm 44.317251 -0.000000 134.672785
RightHand 0.326857 -0.000000 37.874410
RightHandThumb1 -24.326973 -0.000000 -32.862282
LeftUpLeg 14.747177 5.882853 5.708530
LeftLeg 12.504498 -0.000000 -0.000000
LeftFoot -14.649270 -3.644729 -11.924097
LeftToeBase 10.404791 -0.000000 -0.000000
RightUpLeg 25.548913 -19.220094 -18.896231
RightLeg 1.684329 -0.000000 -0.000000
RightFoot -12.320877 6.083941 20.194519
RightToeBase 14.517233 -0.000000 -0.000000
1775
root 0.937201 35.619326 2.873298 -26.795180 -77.480724 13.451153
Spine 8.687122 3.652764 -9.835824
Head -7.465386 1.834561 -1.764893
LeftShoulder 7.030143 0.272580 24.605776
LeftArm 93.604769 46.528311 -37.080823
LeftForeArm -46.721766 -0.000000 92.753388
LeftHand -28.415486 -0.000000 14.353635
LeftHandThumb1 -26.253704 0.000000 33.147579
RightShoulder -0.703235 -34.187268 -20.524605
RightArm 104.779629 18.275239 70.803302
RightForeArm 45.143756 -0.000000 134.815184
RightHand 0.296700 -0.000000 37.819715
RightHandThumb1 -24.326973 -0.000000 -32.862282
LeftUpLeg 14.810109 5.970732 5.715095
LeftLeg 12.474594 -0.000000 -0.000000
LeftFoot -14.679564 -3.602922 -11.923790
LeftToeBase 10.460314 -0.000000 -0.000000
RightUpLeg 25.524147 -19.139668 -18.888410
RightLeg 1.677813 -0.000000 -0.000000
RightFoot -12.294414 6.114855 20.206890
RightToeBase 14.558051 -0.000000 -0.000000
1776
root 0.937513 35.620058 2.879980 -26.986388 -77.604452 13.637477
Spine 8.671455 3.590952 -9.762674
Head -7.362864 2.155168 -1.884369
LeftShoulder 6.980391 0.298616 24.604643
LeftArm 93.641087 46.443408 -37.023712
LeftForeArm -46.602594 -0.000000 92.844518
LeftHand -28.441677 0.000000 14.553663
LeftHandThumb1 -26.253704 0.000000 33.147579
RightShoulder -0.849968 -34.122440 -20.414401
RightArm 105.084441 18.077860 71.730609
RightForeArm 45.894819 -0.000000 134.910697
RightHand 0.517680 -0.000000 37.700087
RightHandThumb1 -24.326973 -0.000000 -32.862282
LeftUpLeg 14.861743 6.066302 5.715204
LeftLeg 12.446531 -0.000000 -0.000000
LeftFoot -14.682081 -3.567921 -11.942280
LeftToeBase 10.464743 -0.000000 -0.000000
RightUpLeg 25.478264 -19.036879 -18.875076
RightLeg 1.680563 -0.000000 -0.000000
RightFoot -12.281019 6.142253 20.224090
RightToeBase 14.577058 -0.000000 -0.000000
1777
root 0.937926 35.620990 2.886757 -27.174506 -77.727658 13.818555
Spine 8.662948 3.555803 -9.679195
Head -7.256062 2.432662 -1.994300
LeftShoulder 6.981149 0.249911 24.627666
LeftArm 93.598035 46.415348 -37.051226
LeftForeArm -46.472335 -0.000000 92.957807
LeftHand -28.638780 -0.000000 14.566854
LeftHandThumb1 -26.253704 0.000000 33.147579
RightShoulder -1.021076 -34.049179 -20.289211
RightArm 105.407068 17.869825 72.755385
RightForeArm 46.535782 -0.000000 135.061446
RightHand 0.160922 -0.000000 37.518194
RightHandThumb1 -24.326973 -0.000000 -32.862282
LeftUpLeg 14.912811 6.153945 5.712701
LeftLeg 12.424104 -0.000000 -0.000000
LeftFoot -14.688033 -3.516847 -11.939503
LeftToeBase 10.461573 -0.000000 -0.000000
RightUpLeg 25.431383 -18.926276 -18.854578
RightLeg 1.684733 -0.000000 -0.000000
RightFoot -12.264259 6.142341 20.215209
RightToeBase 14.567826 -0.000000 -0.000000
1778
root 0.938917 35.621846 2.892738 -27.323735 -77.846163 13.968709
Spine 8.650480 3.498915 -9.592856
Head -7.151584 2.741845 -2.122537
LeftShoulder 6.955426 0.219744 24.653818
LeftArm 93.575053 46.410383 -37.067617
LeftForeArm -46.161166 -0.000000 93.058114
LeftHand -28.730507 -0.000000 14.697302
LeftHandThumb1 -26.253704 0.000000 33.147579
RightShoulder -1.187813 -33.975247 -20.155841
RightArm 105.746867 17.673642 73.721893
RightForeArm 47.171279 -0.000000 135.156334
RightHand -0.016646 -0.000000 37.205077
RightHandThumb1 -24.326973 -0.000000 -32.862282
LeftUpLeg 14.954680 6.221174 5.710828
LeftLeg 12.394749 -0.000000 -0.000000
LeftFoot -14.699665 -3.459858 -11.964736
LeftToeBase 10.461124 -0.000000 -0.000000
RightUpLeg 25.376154 -18.837478 -18.832992
RightLeg 1.694983 -0.000000 -0.000000
RightFoot -12.250533 6.158614 20.205169
RightToeBase 14.584346 -0.000000 -0.000000
1779
root 0.940466 35.622977 2.899104 -27.477949 -77.967349 14.125187
Spine 8.629461 3.461377 -9.503525
Head -7.014323 3.047271 -2.246603
LeftShoulder 6.960501 0.222302 24.674391
LeftArm 93.533736 46.377043 -37.105919
LeftForeArm -45.884452 -0.000000 93.142178
LeftHand -28.763504 -0.000000 14.758841
LeftHandThumb1 -26.253704 0.000000 33.147579
RightShoulder -1.343515 -33.958381 -20.027925
RightArm 106.151098 17.455874 74.761982
RightForeArm 47.791704 -0.000000 135.210196
RightHand -0.046284 -0.000000 37.058246
RightHandThumb1 -24.326973 -0.000000 -32.862282
LeftUpLeg 15.001379 6.272805 5.698618
LeftLeg 12.354392 -0.000000 -0.000000
LeftFoot -14.724865 -3.375109 -11.967464
LeftToeBase 10.519782 -0.000000 -0.000000
RightUpLeg 25.315702 -18.734158 -18.805245
RightLeg 1.706725 -0.000000 -0.000000
RightFoot -12.233774 6.178934 20.229080
RightToeBase 14.594549 -0.000000 -0.000000
